<svg width="18" height="19" viewBox="0 0 18 19" fill="none" xmlns="http://www.w3.org/2000/svg">
<path d="M14.0324 7.12883C13.9626 7.05853 13.8797 7.00274 13.7883 6.96466C13.6969 6.92659 13.5989 6.90698 13.4999 6.90698C13.4009 6.90698 13.3028 6.92659 13.2114 6.96466C13.12 7.00274 13.0371 7.05853 12.9674 7.12883L9.53236 10.5638C9.46264 10.6341 9.37969 10.6899 9.28829 10.728C9.1969 10.7661 9.09887 10.7857 8.99986 10.7857C8.90085 10.7857 8.80282 10.7661 8.71143 10.728C8.62004 10.6899 8.53708 10.6341 8.46736 10.5638L5.03236 7.12883C4.96264 7.05853 4.87969 7.00274 4.78829 6.96466C4.6969 6.92659 4.59887 6.90698 4.49986 6.90698C4.40085 6.90698 4.30282 6.92659 4.21143 6.96466C4.12003 7.00274 4.03708 7.05853 3.96736 7.12883C3.82767 7.26935 3.74927 7.45944 3.74927 7.65758C3.74927 7.85572 3.82767 8.04581 3.96736 8.18633L7.40986 11.6288C7.83174 12.0502 8.40361 12.2868 8.99986 12.2868C9.59611 12.2868 10.168 12.0502 10.5899 11.6288L14.0324 8.18633C14.1721 8.04581 14.2505 7.85572 14.2505 7.65758C14.2505 7.45944 14.1721 7.26935 14.0324 7.12883Z" fill="#F3486A"/>
</svg>
