<svg width="18" height="19" viewBox="0 0 18 19" fill="none" xmlns="http://www.w3.org/2000/svg">
<path d="M14.0324 6.28264C13.9626 6.21234 13.8797 6.15655 13.7883 6.11847C13.6969 6.08039 13.5989 6.06079 13.4999 6.06079C13.4009 6.06079 13.3028 6.08039 13.2114 6.11847C13.12 6.15655 13.0371 6.21234 12.9674 6.28264L9.53236 9.71763C9.46264 9.78793 9.37969 9.84372 9.28829 9.8818C9.1969 9.91988 9.09887 9.93948 8.99986 9.93948C8.90085 9.93948 8.80282 9.91988 8.71143 9.8818C8.62004 9.84372 8.53708 9.78793 8.46736 9.71763L5.03236 6.28264C4.96264 6.21234 4.87969 6.15655 4.78829 6.11847C4.6969 6.08039 4.59887 6.06079 4.49986 6.06079C4.40085 6.06079 4.30282 6.08039 4.21143 6.11847C4.12003 6.15655 4.03708 6.21234 3.96736 6.28264C3.82767 6.42316 3.74927 6.61325 3.74927 6.81139C3.74927 7.00953 3.82767 7.19962 3.96736 7.34014L7.40986 10.7826C7.83174 11.204 8.40361 11.4406 8.99986 11.4406C9.59611 11.4406 10.168 11.204 10.5899 10.7826L14.0324 7.34014C14.1721 7.19962 14.2505 7.00953 14.2505 6.81139C14.2505 6.61325 14.1721 6.42316 14.0324 6.28264V6.28264Z" fill="#060C1F"/>
</svg>
