<svg width="25" height="24" viewBox="0 0 25 24" fill="none" xmlns="http://www.w3.org/2000/svg">
<g clip-path="url(#clip0_32_18)">
<path d="M23.2156 10.9998H1.21558C0.663291 10.9998 0.215576 11.4475 0.215576 11.9998C0.215576 12.552 0.663291 12.9998 1.21558 12.9998H23.2156C23.7679 12.9998 24.2156 12.552 24.2156 11.9998C24.2156 11.4475 23.7679 10.9998 23.2156 10.9998Z" fill="white"/>
<path d="M23.2156 4.00024H1.21558C0.663291 4.00024 0.215576 4.44796 0.215576 5.00024C0.215576 5.55253 0.663291 6.00024 1.21558 6.00024H23.2156C23.7679 6.00024 24.2156 5.55253 24.2156 5.00024C24.2156 4.44796 23.7679 4.00024 23.2156 4.00024Z" fill="white"/>
<path d="M23.2156 18H1.21558C0.663291 18 0.215576 18.4477 0.215576 19C0.215576 19.5523 0.663291 20 1.21558 20H23.2156C23.7679 20 24.2156 19.5523 24.2156 19C24.2156 18.4477 23.7679 18 23.2156 18Z" fill="white"/>
</g>
<defs>
<clipPath id="clip0_32_18">
<rect width="24" height="24" fill="white" transform="translate(0.215576)"/>
</clipPath>
</defs>
</svg>
