<svg width="18" height="19" viewBox="0 0 18 19" fill="none" xmlns="http://www.w3.org/2000/svg">
<path d="M12.75 8.43268H9.75V5.43268C9.75 5.23377 9.67098 5.043 9.53033 4.90235C9.38968 4.7617 9.19891 4.68268 9 4.68268C8.80109 4.68268 8.61032 4.7617 8.46967 4.90235C8.32902 5.043 8.25 5.23377 8.25 5.43268V8.43268H5.25C5.05109 8.43268 4.86032 8.5117 4.71967 8.65235C4.57902 8.793 4.5 8.98377 4.5 9.18268C4.5 9.38159 4.57902 9.57236 4.71967 9.71301C4.86032 9.85366 5.05109 9.93268 5.25 9.93268H8.25V12.9327C8.25 13.1316 8.32902 13.3224 8.46967 13.463C8.61032 13.6037 8.80109 13.6827 9 13.6827C9.19891 13.6827 9.38968 13.6037 9.53033 13.463C9.67098 13.3224 9.75 13.1316 9.75 12.9327V9.93268H12.75C12.9489 9.93268 13.1397 9.85366 13.2803 9.71301C13.421 9.57236 13.5 9.38159 13.5 9.18268C13.5 8.98377 13.421 8.793 13.2803 8.65235C13.1397 8.5117 12.9489 8.43268 12.75 8.43268Z" fill="white"/>
</svg>
