<svg width="19" height="19" viewBox="0 0 19 19" fill="none" xmlns="http://www.w3.org/2000/svg">
<g clip-path="url(#clip0_2_206)">
<path d="M18.2357 17.2798L13.7589 12.803C14.9789 11.311 15.5787 9.40709 15.4343 7.48519C15.2899 5.56329 14.4123 3.77042 12.9831 2.47741C11.5539 1.1844 9.68235 0.490186 7.75563 0.53836C5.82892 0.586534 3.99443 1.37341 2.63161 2.73623C1.2688 4.09904 0.48192 5.93354 0.433746 7.86025C0.385572 9.78696 1.07979 11.6585 2.37279 13.0877C3.6658 14.5169 5.45868 15.3945 7.38057 15.5389C9.30247 15.6833 11.2064 15.0835 12.6984 13.8635L17.1752 18.3403C17.3166 18.4769 17.5061 18.5525 17.7027 18.5508C17.8994 18.5491 18.0875 18.4702 18.2265 18.3311C18.3656 18.1921 18.4445 18.004 18.4462 17.8073C18.4479 17.6107 18.3723 17.4212 18.2357 17.2798ZM7.9554 14.06C6.76872 14.06 5.60868 13.7081 4.62198 13.0488C3.63529 12.3895 2.86625 11.4525 2.41213 10.3561C1.958 9.25976 1.83918 8.05336 2.07069 6.88948C2.3022 5.72559 2.87365 4.65649 3.71276 3.81738C4.55188 2.97826 5.62098 2.40682 6.78486 2.17531C7.94875 1.94379 9.15515 2.06261 10.2515 2.51674C11.3479 2.97087 12.2849 3.7399 12.9442 4.7266C13.6035 5.71329 13.9554 6.87333 13.9554 8.06002C13.9536 9.65077 13.3209 11.1759 12.1961 12.3007C11.0712 13.4255 9.54615 14.0582 7.9554 14.06Z" fill="white"/>
</g>
<defs>
<clipPath id="clip0_2_206">
<rect width="18" height="18" fill="white" transform="translate(0.455566 0.559448)"/>
</clipPath>
</defs>
</svg>
