<svg width="18" height="19" viewBox="0 0 18 19" fill="none" xmlns="http://www.w3.org/2000/svg">
<g clip-path="url(#clip0_2_171)">
<path d="M17.1217 7.37839L14.2125 4.46914C14.071 4.33252 13.8815 4.25693 13.6849 4.25863C13.4883 4.26034 13.3001 4.33922 13.1611 4.47828C13.022 4.61733 12.9432 4.80544 12.9414 5.00209C12.9397 5.19874 13.0153 5.38819 13.1519 5.52964L16.0612 8.43889C16.1476 8.52704 16.2232 8.62524 16.2862 8.73139C16.2749 8.73139 16.2659 8.72539 16.2547 8.72539L4.4917 8.74939C4.29279 8.74939 4.10202 8.82841 3.96137 8.96906C3.82072 9.10971 3.7417 9.30048 3.7417 9.49939C3.7417 9.6983 3.82072 9.88907 3.96137 10.0297C4.10202 10.1704 4.29279 10.2494 4.4917 10.2494L16.2502 10.2254C16.2712 10.2254 16.2884 10.2149 16.3087 10.2134C16.2422 10.3403 16.1578 10.4569 16.0582 10.5599L13.1489 13.4691C13.0773 13.5383 13.0202 13.6211 12.9809 13.7126C12.9416 13.8041 12.9209 13.9025 12.92 14.0021C12.9191 14.1017 12.9381 14.2004 12.9758 14.2926C13.0135 14.3848 13.0692 14.4685 13.1397 14.5389C13.2101 14.6094 13.2938 14.665 13.386 14.7028C13.4782 14.7405 13.5769 14.7594 13.6765 14.7586C13.7761 14.7577 13.8745 14.737 13.966 14.6977C14.0575 14.6584 14.1403 14.6013 14.2094 14.5296L17.1187 11.6204C17.6811 11.0578 17.9971 10.2949 17.9971 9.49939C17.9971 8.7039 17.6811 7.94097 17.1187 7.37839H17.1217Z" fill="white"/>
<path d="M5.25 17H3.75C3.15326 17 2.58097 16.7629 2.15901 16.341C1.73705 15.919 1.5 15.3467 1.5 14.75V4.25C1.5 3.65326 1.73705 3.08097 2.15901 2.65901C2.58097 2.23705 3.15326 2 3.75 2H5.25C5.44891 2 5.63968 1.92098 5.78033 1.78033C5.92098 1.63968 6 1.44891 6 1.25C6 1.05109 5.92098 0.860322 5.78033 0.71967C5.63968 0.579018 5.44891 0.5 5.25 0.5H3.75C2.7558 0.501191 1.80267 0.896661 1.09966 1.59966C0.396661 2.30267 0.00119089 3.2558 0 4.25L0 14.75C0.00119089 15.7442 0.396661 16.6973 1.09966 17.4003C1.80267 18.1033 2.7558 18.4988 3.75 18.5H5.25C5.44891 18.5 5.63968 18.421 5.78033 18.2803C5.92098 18.1397 6 17.9489 6 17.75C6 17.5511 5.92098 17.3603 5.78033 17.2197C5.63968 17.079 5.44891 17 5.25 17Z" fill="white"/>
</g>
<defs>
<clipPath id="clip0_2_171">
<rect width="18" height="18" fill="white" transform="translate(0 0.5)"/>
</clipPath>
</defs>
</svg>
