<svg width="18" height="19" viewBox="0 0 18 19" fill="none" xmlns="http://www.w3.org/2000/svg">
<g clip-path="url(#clip0_4_513)">
<path d="M9.02414 14.75C9.31972 14.7505 9.61248 14.6926 9.88561 14.5796C10.1587 14.4666 10.4068 14.3007 10.6156 14.0915L13.5549 11.15L12.4944 10.0925L9.76964 12.818L9.75014 0.5H8.25014L8.26964 12.806L5.55464 10.091L4.49414 11.15L7.43339 14.0892C7.64195 14.2987 7.88985 14.4649 8.16284 14.5783C8.43583 14.6917 8.72854 14.7501 9.02414 14.75Z" fill="white"/>
<path d="M16.5 12.5002V16.2502C16.5 16.4491 16.421 16.6399 16.2803 16.7806C16.1397 16.9212 15.9489 17.0002 15.75 17.0002H2.25C2.05109 17.0002 1.86032 16.9212 1.71967 16.7806C1.57902 16.6399 1.5 16.4491 1.5 16.2502V12.5002H0V16.2502C0 16.847 0.237053 17.4193 0.65901 17.8412C1.08097 18.2632 1.65326 18.5002 2.25 18.5002H15.75C16.3467 18.5002 16.919 18.2632 17.341 17.8412C17.7629 17.4193 18 16.847 18 16.2502V12.5002H16.5Z" fill="white"/>
</g>
<defs>
<clipPath id="clip0_4_513">
<rect width="18" height="18" fill="white" transform="translate(0 0.5)"/>
</clipPath>
</defs>
</svg>
